# xmcd CD database file
#
# Track frame offsets:
#	180
#	20210
#	48196
#	78096
#	101181
#	128228
#	139874
#	183162
#	204867
#	240944
#
# Disc length: 3604 seconds
#
# Revision: 0
# Processed by: cddbd v1.5.2PL0 Copyright (c) Steve Scherf et al.
# Submitted via: CDex 1.70beta2
#
DISCID=7b0e120a
DTITLE=Blue Jam - Blues for better days
DYEAR=1995
DGENRE=Blues
TTITLE0=Rainy day
TTITLE1=Blues for better days
TTITLE2=Old love
TTITLE3=No reason
TTITLE4=Foxy lady
TTITLE5=Tougher than tough
TTITLE6=Flyin' high
TTITLE7=Feeling good
TTITLE8=I wanna go
TTITLE9=Comin' home
EXTD=YEAR: 1995
EXTT0=
EXTT1=
EXTT2=
EXTT3=
EXTT4=
EXTT5=
EXTT6=
EXTT7=
EXTT8=
EXTT9=
PLAYORDER=
